PathFileType	4	(X/Y/Z)	DARI_DATA/Captury_Subj2_bilateral_squat03.trc
DataRate	CameraRate	NumFrames	NumMarkers	Units	OrigDataRate	OrigDataStartFrame	OrigNumFrames
60	60	4	47	mm	60.00239944458008	156	249
Frame#	Time		LeftUpLeg_		RightUpLeg_		LeftLeg_		RightLeg_		LeftFoot_		RightFoot_		LeftToeBase_		RightToeBase_		Knee_Lateral_r		Knee_Lateral_l		Ankle_Lateral_r		Ankle_Lateral_l		LeftArm_		LeftForeArm_		LeftHand_		LeftHandEE		RightArm_		RightForeArm_		RightHand_		RightHandEE		Spine_		Spine1_		Spine2_		Spine3_		Spine4_		Spine5_		Spine_x		Spine_y		Spine_z		RASI		LASI		RIPS		LIPS		RTHI		LTHI		RTIB		LTIB		RTOE		LTOE		RHEE		LHEE		RHipAngles		LHipAngles		RKneeAngles		LKneeAngles		RAnkleAngles		LAnkleAngles
			X1	Y1	Z1	X2	Y2	Z2	X3	Y3	Z3	X4	Y4	Z4	X5	Y5	Z5	X6	Y6	Z6	X7	Y7	Z7	X8	Y8	Z8	X9	Y9	Z9	X10	Y10	Z10	X11	Y11	Z11	X12	Y12	Z12	X13	Y13	Z13	X14	Y14	Z14	X15	Y15	Z15	X16	Y16	Z16	X17	Y17	Z17	X18	Y18	Z18	X19	Y19	Z19	X20	Y20	Z20	X21	Y21	Z21	X22	Y22	Z22	X23	Y23	Z23	X24	Y24	Z24	X25	Y25	Z25	X26	Y26	Z26	X27	Y27	Z27	X28	Y28	Z28	X29	Y29	Z29	X30	Y30	Z30	X31	Y31	Z31	X32	Y32	Z32	X33	Y33	Z33	X34	Y34	Z34	X35	Y35	Z35	X36	Y36	Z36	X37	Y37	Z37	X38	Y38	Z38	X39	Y39	Z39	X40	Y40	Z40	X41	Y41	Z41	X42	Y42	Z42	X43	Y43	Z43	X44	Y44	Z44	X45	Y45	Z45	X46	Y46	Z46	X47	Y47	Z47

156	2.58333	29.36797	551.62103	189.51978	197.97612	548.27911	182.71208	-96.42438	414.41684	-174.40210	307.47534	405.43933	-184.29549	-78.00841	78.95508	-2.74747	287.45880	79.57388	4.78154	-98.24857	20.83547	-115.90916	303.39301	22.39305	-109.54073	353.13336	405.87589	-173.50606	-141.62506	415.50247	-161.87306	328.88214	81.88757	33.63025	-118.33246	81.92036	27.56214	-39.12814	961.71747	-118.15294	-79.69493	1002.98651	-374.85645	-70.78921	1062.80017	-592.35022	-72.13732	1090.98816	-669.75165	233.99805	970.23755	-128.75558	258.74707	1000.72198	-388.95486	248.50439	1062.48242	-605.84485	245.45349	1098.06213	-680.08862	113.29665	631.02393	137.01866	111.05973	695.80975	68.29100	109.58379	757.70911	41.69020	107.18583	844.53021	31.02411	101.02867	957.27637	-33.02431	-0.00000	0.00000	-0.00000	160.69577	630.08441	135.10487	112.69357	665.96741	104.92798	115.34153	663.10651	171.91489	250.94815	530.24115	66.78076	-33.44654	535.87811	78.26345	152.80472	628.55579	175.67978	76.96613	630.05896	178.74184	313.11627	479.71875	28.35896	-92.70917	486.58310	39.02094	338.27988	252.99257	-103.41870	-123.71009	206.60591	-79.59130	313.51593	25.61931	-181.38150	-110.18374	15.98077	-187.37918	279.87097	18.89370	57.47076	-70.81115	18.74052	50.52749	-111.77703	15.16531	4.04885	-112.14468	12.41512	4.40661	-93.73141	0.08149	-0.13091	-91.37065	-0.03051	-0.30656	-19.44432	-5.00508	-0.19636	-15.87970	-5.58171	0.94631
157	2.60000	29.50443	559.60663	189.38661	198.09848	556.39532	182.17813	-95.56864	415.72803	-172.19817	306.34225	406.71353	-182.46762	-78.15704	79.13794	-2.66069	287.80597	79.80862	4.95865	-98.39471	20.63284	-115.62402	303.39685	22.40084	-109.29721	352.03143	407.27792	-171.81693	-140.77808	416.83173	-159.70227	329.31146	82.22864	33.68028	-118.50446	82.20018	27.60816	-38.47505	971.67902	-116.21592	-79.23228	1011.87219	-373.05991	-71.13877	1070.87488	-590.80682	-71.92491	1098.57507	-668.39191	234.78018	980.19769	-125.72404	260.19788	1009.16766	-386.03186	249.95782	1069.86584	-603.22168	246.71642	1105.34949	-677.50336	113.25210	639.13617	136.78818	110.90093	704.17657	68.35599	109.48632	766.20032	42.13872	107.31988	853.07202	32.14717	101.58635	966.35938	-30.90218	-0.00000	0.00000	-0.00000	160.64725	638.23340	134.76172	112.54832	674.11951	104.74300	115.35596	671.17633	171.71985	250.81055	538.54138	66.09990	-33.56034	543.95807	78.25862	152.85280	636.64807	175.35312	77.02056	638.09253	178.59546	312.69788	484.85431	28.77820	-92.23911	491.50952	39.97455	337.81601	253.93260	-102.48403	-123.46515	207.38808	-78.73582	313.21353	25.51970	-181.18521	-110.26945	15.56230	-187.08910	280.57709	19.23294	57.81830	-71.12137	19.10991	50.84582	-110.65968	15.09656	4.20593	-111.08164	12.19490	4.49368	-92.36459	0.01734	-0.15637	-89.98169	-0.01141	-0.30384	-19.01087	-5.06517	-0.11926	-15.30031	-5.58104	1.06213
158	2.61667	29.14598	568.57977	188.99237	197.73575	564.92920	181.89365	-94.73603	417.10077	-169.88815	305.63434	408.29688	-179.92413	-78.44332	79.29587	-2.67134	287.69537	79.82407	4.79958	-98.58280	20.49575	-115.49899	303.21426	22.49123	-109.50372	351.31152	408.79300	-169.21866	-139.97385	418.30682	-157.50491	329.18839	82.23669	33.53986	-118.84383	82.42694	27.51958	-37.95961	982.53381	-113.47377	-78.52779	1021.36157	-370.55762	-71.21030	1078.61304	-588.79895	-72.46349	1106.22363	-666.40979	235.53668	990.63434	-122.91762	262.11865	1017.97583	-383.28528	251.60530	1077.89734	-600.67761	247.81689	1112.78625	-675.21466	113.13287	647.87018	136.41451	110.98285	713.04205	68.20879	109.71329	775.12341	42.32545	107.70713	861.99176	32.94887	102.16551	975.71399	-29.16488	-0.00000	0.00000	-0.00000	160.52681	646.84393	134.41891	112.54017	682.84174	104.35423	115.29719	679.91949	171.33411	250.47595	546.89020	65.85682	-33.88772	553.04761	77.83039	152.70224	645.29584	175.00595	76.87192	646.93781	178.19891	312.14087	490.08124	29.93335	-92.07713	497.11600	40.73395	337.38959	254.92636	-101.18996	-123.30250	208.17999	-77.93686	312.95355	25.68371	-181.39902	-110.32526	15.27328	-186.97501	280.57071	19.21375	57.63367	-71.64498	19.41370	51.02896	-109.68999	15.07420	4.42421	-109.93328	11.99483	4.71865	-90.83123	0.11586	-0.16009	-88.40746	-0.12075	-0.30285	-18.56364	-5.14202	-0.07859	-14.73164	-5.58049	1.20316
159	2.63333	29.29898	577.18896	187.93883	197.87827	574.18756	180.30742	-94.09787	418.25146	-167.87001	303.70441	408.99615	-178.30168	-78.46410	79.40591	-2.70840	288.77435	79.77740	5.35880	-98.73669	20.23518	-115.31820	303.77905	22.02296	-108.80079	349.45071	409.84512	-167.91837	-139.32143	419.35318	-155.42517	330.41696	82.48537	33.85539	-118.85519	82.61510	27.48689	-37.29287	993.77924	-110.93416	-78.52637	1030.91577	-368.16199	-71.32622	1086.69275	-586.78870	-73.06144	1113.46704	-664.68274	236.35332	1001.40814	-120.14454	263.78577	1027.31714	-380.57047	253.16318	1086.41345	-598.18329	249.21584	1120.05396	-673.28387	112.84614	657.15320	135.68173	110.42928	722.76025	68.05154	109.17357	784.95459	42.72408	107.41518	871.80505	34.11832	102.54388	985.97980	-26.98842	-0.00000	0.00000	-0.00000	160.23715	656.30945	133.53639	112.03303	692.35229	103.87630	115.00327	688.95782	170.82478	250.32990	557.17139	63.98566	-34.01614	562.23389	76.85769	152.54109	654.44153	174.13455	76.71548	655.79150	177.56709	311.43100	495.88663	29.45183	-91.65634	502.13290	41.24506	336.82019	255.54291	-100.29252	-123.07344	208.83475	-77.18353	313.01154	24.97395	-180.77322	-110.49432	14.79020	-186.77510	282.29373	19.36393	58.50037	-71.79127	19.70693	51.21115	-107.86415	14.84882	4.50164	-108.45109	11.84470	4.82085	-89.22446	-0.04790	-0.14694	-86.91629	0.03795	-0.30575	-18.10738	-5.20784	-0.04431	-14.17941	-5.58025	1.35720
